<?xml version="1.0" standalone="no"?>
<!DOCTYPE svg PUBLIC "-//W3C//DTD SVG 20010904//EN"
 "http://www.w3.org/TR/2001/REC-SVG-20010904/DTD/svg10.dtd">
<svg version="1.0" xmlns="http://www.w3.org/2000/svg"
 width="980.000000pt" height="980.000000pt" viewBox="0 0 980.000000 980.000000"
 preserveAspectRatio="xMidYMid meet">
<metadata>
Created by potrace 1.14, written by Peter Selinger 2001-2017
</metadata>
<g transform="translate(0.000000,980.000000) scale(0.100000,-0.100000)"
fill="#000000" stroke="none">
<path d="M5261 8448 c-19 -62 -1822 -6803 -1824 -6822 -2 -17 55 -34 528 -162
292 -79 538 -142 549 -141 16 2 142 463 937 3432 505 1886 915 3433 911 3436
-8 8 -1057 289 -1077 289 -7 0 -18 -15 -24 -32z"/>
<path d="M1160 6114 c-729 -757 -1160 -1211 -1156 -1219 3 -8 526 -555 1162
-1215 l1158 -1201 350 350 351 351 -86 87 c-288 293 -1569 1626 -1569 1633 0
4 370 391 823 860 452 468 824 856 826 862 4 12 -43 61 -410 419 l-287 279
-1162 -1206z"/>
<path d="M7127 6979 c-191 -188 -347 -348 -345 -355 2 -7 373 -396 826 -864
452 -469 822 -856 822 -860 0 -7 -1281 -1340 -1569 -1633 l-86 -87 351 -351
350 -350 1158 1201 c636 660 1159 1207 1162 1215 4 8 -387 421 -1066 1127
-590 612 -1114 1155 -1164 1205 l-91 93 -348 -341z"/>
</g>
</svg>
